<svg xmlns="http://www.w3.org/2000/svg" width="600" height="440" viewBox="0 0 600 440">
<defs>
<linearGradient id="bg" x2="1" y2="1"><stop stop-color="#1b2949"/><stop offset="1" stop-color="#0b1226"/></linearGradient>
<linearGradient id="disc" x2="1" y2="1"><stop stop-color="#91f4df"/><stop offset=".3" stop-color="#b9c7e8"/><stop offset=".58" stop-color="#8871c7"/><stop offset=".8" stop-color="#71cde0"/><stop offset="1" stop-color="#d2dcf5"/></linearGradient>
</defs>
<rect width="600" height="440" fill="url(#bg)"/>
<path d="M0 330L600 100M0 370L600 140M0 410L600 180" stroke="#647eaf" stroke-opacity=".1" stroke-width="2"/>
<circle cx="384" cy="196" r="145" fill="none" stroke="#59e0d0" stroke-opacity=".08" stroke-width="34"/>
<circle cx="384" cy="204" r="125" fill="#060c1b" opacity=".5"/>
<circle cx="384" cy="196" r="122" fill="url(#disc)"/>
<g fill="none" stroke="#fff" stroke-opacity=".24"><circle cx="384" cy="196" r="112"/><circle cx="384" cy="196" r="88"/><circle cx="384" cy="196" r="47"/></g>
<path d="M400 86 A112 112 0 0 1 490 150" fill="none" stroke="#fff" stroke-opacity=".6" stroke-width="4"/>
<circle cx="384" cy="196" r="30" fill="#18233c"/><circle cx="384" cy="196" r="11" fill="#6bc5c6"/>
<g stroke="#72ead5" stroke-width="5" stroke-linecap="round" opacity=".65"><path d="M52 130v30M67 119v52M82 107v76M97 128v34M112 114v62M127 133v24"/></g>
<rect x="50" y="48" width="63" height="5" rx="2.5" fill="#89edda"/>
<rect x="122" y="48" width="24" height="5" rx="2.5" fill="#b194ea"/>
</svg>
