<svg xmlns="http://www.w3.org/2000/svg" width="600" height="440" viewBox="0 0 600 440"><defs><linearGradient id="bg" x2="0" y2="1"><stop stop-color="#283c58"/><stop offset="1" stop-color="#090f1c"/></linearGradient><linearGradient id="cd" x2="1" y2="1"><stop stop-color="#354a69"/><stop offset=".26" stop-color="#bbcbdc"/><stop offset=".4" stop-color="#6589aa"/><stop offset=".52" stop-color="#d0dfec"/><stop offset=".7" stop-color="#566988"/><stop offset="1" stop-color="#99b4cb"/></linearGradient><pattern id="scan" width="4" height="4" patternUnits="userSpaceOnUse"><path d="M0 0H4" stroke="#000" stroke-opacity=".24"/></pattern></defs><rect width="600" height="440" fill="url(#bg)"/><path d="M0 70H540L600 130M0 340H120L190 410H600" fill="none" stroke="#42627e" stroke-width="2"/><circle cx="350" cy="227" r="164" fill="none" stroke="#3b6582" stroke-width="10" stroke-dasharray="80 12 8 12"/><circle cx="350" cy="227" r="143" fill="url(#cd)"/><g fill="none" stroke="#dce9f1" opacity=".35"><circle cx="350" cy="227" r="134"/><circle cx="350" cy="227" r="129"/><circle cx="350" cy="227" r="52"/></g><circle cx="350" cy="227" r="34" fill="#15283f"/><circle cx="350" cy="227" r="11" fill="#7aa2bf"/><g fill="#db973e"><rect x="40" y="157" width="10" height="98"/><rect x="57" y="186" width="10" height="69"/><rect x="74" y="141" width="10" height="114"/><rect x="91" y="173" width="10" height="82"/></g><path d="M27 27H170M27 27V60M573 413H430M573 413V380" fill="none" stroke="#a5bbce" stroke-width="3"/><rect width="600" height="440" fill="url(#scan)"/></svg>
